<mxfile host="app.diagrams.net" modified="2022-05-05T02:47:20.221Z" agent="5.0 (Windows NT 10.0; Win64; x64) AppleWebKit/537.36 (KHTML, like Gecko) Chrome/100.0.4896.127 Safari/537.36 Edg/100.0.1185.50" etag="252YlCpM4zdF1TosmxAj" version="17.4.6" type="github">
  <diagram id="C5RBs43oDa-KdzZeNtuy" name="Page-1">
    <mxGraphModel dx="744" dy="444" grid="1" gridSize="10" guides="1" tooltips="1" connect="1" arrows="1" fold="1" page="1" pageScale="1" pageWidth="827" pageHeight="1169" math="0" shadow="0">
      <root>
        <mxCell id="WIyWlLk6GJQsqaUBKTNV-0" />
        <mxCell id="WIyWlLk6GJQsqaUBKTNV-1" parent="WIyWlLk6GJQsqaUBKTNV-0" />
        <mxCell id="bEND3ngXFf0bFGm5nGHD-9" value="" style="edgeStyle=orthogonalEdgeStyle;rounded=0;orthogonalLoop=1;jettySize=auto;html=1;" edge="1" parent="WIyWlLk6GJQsqaUBKTNV-1" source="bEND3ngXFf0bFGm5nGHD-7" target="bEND3ngXFf0bFGm5nGHD-8">
          <mxGeometry relative="1" as="geometry" />
        </mxCell>
        <mxCell id="bEND3ngXFf0bFGm5nGHD-7" value="告警输入" style="ellipse;whiteSpace=wrap;html=1;" vertex="1" parent="WIyWlLk6GJQsqaUBKTNV-1">
          <mxGeometry x="540" y="70" width="120" height="80" as="geometry" />
        </mxCell>
        <mxCell id="bEND3ngXFf0bFGm5nGHD-11" value="" style="edgeStyle=orthogonalEdgeStyle;rounded=0;orthogonalLoop=1;jettySize=auto;html=1;" edge="1" parent="WIyWlLk6GJQsqaUBKTNV-1" source="bEND3ngXFf0bFGm5nGHD-8" target="bEND3ngXFf0bFGm5nGHD-10">
          <mxGeometry relative="1" as="geometry" />
        </mxCell>
        <mxCell id="bEND3ngXFf0bFGm5nGHD-8" value="合并告警处理" style="rounded=1;whiteSpace=wrap;html=1;" vertex="1" parent="WIyWlLk6GJQsqaUBKTNV-1">
          <mxGeometry x="540" y="200" width="120" height="60" as="geometry" />
        </mxCell>
        <mxCell id="bEND3ngXFf0bFGm5nGHD-13" value="" style="edgeStyle=orthogonalEdgeStyle;rounded=0;orthogonalLoop=1;jettySize=auto;html=1;" edge="1" parent="WIyWlLk6GJQsqaUBKTNV-1" source="bEND3ngXFf0bFGm5nGHD-10" target="bEND3ngXFf0bFGm5nGHD-12">
          <mxGeometry relative="1" as="geometry" />
        </mxCell>
        <mxCell id="bEND3ngXFf0bFGm5nGHD-15" style="edgeStyle=orthogonalEdgeStyle;rounded=0;orthogonalLoop=1;jettySize=auto;html=1;" edge="1" parent="WIyWlLk6GJQsqaUBKTNV-1" source="bEND3ngXFf0bFGm5nGHD-10" target="bEND3ngXFf0bFGm5nGHD-14">
          <mxGeometry relative="1" as="geometry" />
        </mxCell>
        <mxCell id="bEND3ngXFf0bFGm5nGHD-10" value="创建合并告警？" style="rhombus;whiteSpace=wrap;html=1;" vertex="1" parent="WIyWlLk6GJQsqaUBKTNV-1">
          <mxGeometry x="560" y="290" width="80" height="80" as="geometry" />
        </mxCell>
        <mxCell id="bEND3ngXFf0bFGm5nGHD-20" value="" style="edgeStyle=orthogonalEdgeStyle;rounded=0;orthogonalLoop=1;jettySize=auto;html=1;" edge="1" parent="WIyWlLk6GJQsqaUBKTNV-1" source="bEND3ngXFf0bFGm5nGHD-12" target="bEND3ngXFf0bFGm5nGHD-18">
          <mxGeometry relative="1" as="geometry" />
        </mxCell>
        <mxCell id="bEND3ngXFf0bFGm5nGHD-12" value="生成合并告警" style="rounded=1;whiteSpace=wrap;html=1;" vertex="1" parent="WIyWlLk6GJQsqaUBKTNV-1">
          <mxGeometry x="540" y="410" width="120" height="60" as="geometry" />
        </mxCell>
        <mxCell id="bEND3ngXFf0bFGm5nGHD-17" style="edgeStyle=orthogonalEdgeStyle;rounded=0;orthogonalLoop=1;jettySize=auto;html=1;" edge="1" parent="WIyWlLk6GJQsqaUBKTNV-1" source="bEND3ngXFf0bFGm5nGHD-14" target="bEND3ngXFf0bFGm5nGHD-16">
          <mxGeometry relative="1" as="geometry">
            <Array as="points">
              <mxPoint x="790" y="640" />
              <mxPoint x="600" y="640" />
            </Array>
          </mxGeometry>
        </mxCell>
        <mxCell id="bEND3ngXFf0bFGm5nGHD-16" value="结束" style="ellipse;whiteSpace=wrap;html=1;" vertex="1" parent="WIyWlLk6GJQsqaUBKTNV-1">
          <mxGeometry x="540" y="690" width="120" height="80" as="geometry" />
        </mxCell>
        <mxCell id="bEND3ngXFf0bFGm5nGHD-14" value="更新合并告警" style="rounded=1;whiteSpace=wrap;html=1;" vertex="1" parent="WIyWlLk6GJQsqaUBKTNV-1">
          <mxGeometry x="730" y="410" width="120" height="60" as="geometry" />
        </mxCell>
        <mxCell id="bEND3ngXFf0bFGm5nGHD-21" style="edgeStyle=orthogonalEdgeStyle;rounded=0;orthogonalLoop=1;jettySize=auto;html=1;" edge="1" parent="WIyWlLk6GJQsqaUBKTNV-1" source="bEND3ngXFf0bFGm5nGHD-18" target="bEND3ngXFf0bFGm5nGHD-16">
          <mxGeometry relative="1" as="geometry" />
        </mxCell>
        <mxCell id="bEND3ngXFf0bFGm5nGHD-18" value="安全事件聚合" style="rounded=1;whiteSpace=wrap;html=1;" vertex="1" parent="WIyWlLk6GJQsqaUBKTNV-1">
          <mxGeometry x="540" y="524" width="120" height="60" as="geometry" />
        </mxCell>
        <mxCell id="bEND3ngXFf0bFGm5nGHD-23" value="&lt;h1&gt;合并告警调整&lt;/h1&gt;&lt;p&gt;1. 先生成合并告警，再将合并告警聚合到对应的安全事件&lt;/p&gt;&lt;p&gt;2. 默认安全事件移除，direction_key相关逻辑不再使用&lt;/p&gt;" style="text;html=1;strokeColor=none;fillColor=none;spacing=5;spacingTop=-20;whiteSpace=wrap;overflow=hidden;rounded=0;" vertex="1" parent="WIyWlLk6GJQsqaUBKTNV-1">
          <mxGeometry x="290" y="240" width="190" height="155" as="geometry" />
        </mxCell>
        <mxCell id="bEND3ngXFf0bFGm5nGHD-27" value="" style="endArrow=none;html=1;rounded=0;endFill=0;exitX=1;exitY=0.5;exitDx=0;exitDy=0;" edge="1" parent="WIyWlLk6GJQsqaUBKTNV-1" source="bEND3ngXFf0bFGm5nGHD-18">
          <mxGeometry relative="1" as="geometry">
            <mxPoint x="690" y="554" as="sourcePoint" />
            <mxPoint x="1020" y="740" as="targetPoint" />
            <Array as="points">
              <mxPoint x="820" y="740" />
            </Array>
          </mxGeometry>
        </mxCell>
        <mxCell id="bEND3ngXFf0bFGm5nGHD-24" value="" style="endArrow=none;html=1;rounded=0;exitX=0;exitY=0.5;exitDx=0;exitDy=0;endFill=0;" edge="1" parent="WIyWlLk6GJQsqaUBKTNV-1" source="bEND3ngXFf0bFGm5nGHD-12">
          <mxGeometry relative="1" as="geometry">
            <mxPoint x="270" y="380" as="sourcePoint" />
            <mxPoint x="290" y="390" as="targetPoint" />
            <Array as="points">
              <mxPoint x="490" y="390" />
            </Array>
          </mxGeometry>
        </mxCell>
        <mxCell id="bEND3ngXFf0bFGm5nGHD-26" value="&lt;h1&gt;XDR安全事件&lt;/h1&gt;&lt;p&gt;1. 控制生成策略&lt;/p&gt;&lt;p&gt;2. 控制合并策略&lt;/p&gt;" style="text;html=1;strokeColor=none;fillColor=none;spacing=5;spacingTop=-20;whiteSpace=wrap;overflow=hidden;rounded=0;" vertex="1" parent="WIyWlLk6GJQsqaUBKTNV-1">
          <mxGeometry x="827" y="640" width="190" height="155" as="geometry" />
        </mxCell>
      </root>
    </mxGraphModel>
  </diagram>
</mxfile>
